<svg width="128" height="128" viewBox="0 0 128 128" fill="none" xmlns="http://www.w3.org/2000/svg">
    <style>
        #blade {
        animation: spin 16s linear infinite;
        transform-origin: 64px 64px;
        }
        @keyframes spin {
        from {
        transform: rotate(0deg);
        }
        to {
        transform: rotate(360deg);
        }
        }
    </style>
    <g clip-path="url(#clip0_211_4)">
        <path
            d="M93.7374 0.0222168H34.2627C15.3525 0.0222168 0.0224609 15.3522 0.0224609 34.2624V93.7372C0.0224609 95.383 0.141254 97.0009 0.365685 98.5847C2.72057 115.199 16.9983 127.977 34.2627 127.977H93.7374C112.648 127.977 127.978 112.647 127.978 93.7372V34.2624C127.978 15.3522 112.648 0.0222168 93.7374 0.0222168ZM126.838 92.8621C126.838 111.626 111.626 126.838 92.8623 126.838H35.1378C17.9199 126.838 3.69517 114.029 1.4677 97.4214C1.26752 95.9297 1.16229 94.4084 1.16229 92.8621V35.1375C1.16229 16.3732 16.3735 1.16205 35.1378 1.16205H92.8623C111.627 1.16205 126.838 16.3737 126.838 35.1375V92.8621Z"
            fill="url(#paint0_linear_211_4)" />
        <path
            d="M11.9188 65.5085C11.9188 36.7447 35.2362 13.4272 64.0001 13.4272C69.2027 13.4272 74.2257 14.1938 78.9667 15.6136L81.2188 13.2365C75.8148 11.4041 70.0235 10.4102 64.0005 10.4102C34.4039 10.4102 10.4106 34.403 10.4106 64C10.4106 71.0457 11.7712 77.7737 14.2428 83.9366L14.9864 83.1515C13.0027 77.6414 11.9192 71.7018 11.9192 65.5085H11.9188Z"
            fill="url(#paint1_linear_211_4)" />
        <path
            d="M26.2228 64C26.2228 43.1365 43.1362 26.2231 63.9997 26.2231C65.5727 26.2231 67.1232 26.321 68.6457 26.5076L78.9659 15.6136C74.2253 14.1934 69.2023 13.4272 63.9993 13.4272C35.2354 13.4272 11.918 36.7447 11.918 65.5085C11.918 71.7018 13.0015 77.6414 14.9852 83.1515L26.8098 70.6696C26.4242 68.5047 26.2228 66.276 26.2228 64Z"
            fill="url(#paint2_linear_211_4)" />
        <path
            d="M81.2181 13.2365L78.966 15.6136L68.6458 26.5076C87.3172 28.7979 101.776 44.7095 101.776 63.9996C101.776 84.8631 84.8628 101.776 63.9993 101.776C45.4118 101.776 29.9597 88.3516 26.8099 70.6692L14.9853 83.151L14.2417 83.9361C22.1519 103.66 41.4485 117.589 63.9993 117.589C93.5959 117.589 117.589 93.5966 117.589 63.9996C117.589 40.426 102.368 20.4076 81.2181 13.2361V13.2365Z"
            fill="url(#paint3_linear_211_4)" />
        <path
            d="M64 101.777C84.8635 101.777 101.777 84.8636 101.777 64.0001C101.777 44.7096 87.3175 28.798 68.6465 26.5081L26.8105 70.6697C29.9604 88.3521 45.4125 101.777 64 101.777Z"
            fill="url(#paint4_linear_211_4)" />
        <path
            d="M26.2231 64.0001C26.2231 66.276 26.4246 68.5047 26.8101 70.6697L68.6461 26.5081C67.1231 26.3215 65.5731 26.2236 64 26.2236C43.1365 26.2236 26.2231 43.137 26.2231 64.0005V64.0001Z"
            fill="url(#paint5_linear_211_4)" />
        <path
            d="M117.59 64C117.59 93.5966 93.5969 117.59 63.9999 117.59C41.449 117.59 22.1524 103.66 14.2422 83.9366L1.46729 97.4219C3.69516 114.03 17.9194 126.838 35.1374 126.838H92.8619C111.626 126.838 126.837 111.627 126.837 92.8625V35.138C126.837 16.3737 111.626 1.16248 92.8619 1.16248H92.6568L81.2182 13.237C102.368 20.4085 117.589 40.4269 117.589 64.0004L117.59 64Z"
            fill="url(#paint6_linear_211_4)" />
        <path
            d="M1.16211 35.138V92.8625C1.16211 94.4089 1.26734 95.9302 1.46752 97.4219L14.2424 83.9367C11.7708 77.7738 10.4103 71.0462 10.4103 64.0001C10.4103 34.4035 34.4031 10.4103 64.0001 10.4103C70.0236 10.4103 75.8144 11.4042 81.2184 13.2366L92.657 1.16211H35.138C16.3737 1.16211 1.16252 16.3737 1.16252 35.1376L1.16211 35.138Z"
            fill="url(#paint7_linear_211_4)" />
        <path
            d="M68.3089 126.838H59.6909L61.749 70.2212C62.4511 70.4752 63.2107 70.6146 64.0007 70.6146C64.7908 70.6146 65.5487 70.4769 66.2508 70.2224L68.3089 126.838V126.838Z"
            fill="url(#paint8_linear_211_4)" />
        <path
            d="M102.112 85.6112C102.112 85.8562 102.048 86.1045 101.911 86.3285C101.533 86.9487 100.74 87.1715 100.095 86.8369C94.853 84.1175 74.0528 73.3821 72.5652 72.4787C71.5877 71.8822 69.8519 69.8878 68.77 68.5819C69.7006 67.6135 70.3394 66.3635 70.5437 64.9725C72.1583 65.3145 75.0668 65.9895 76.1232 66.6328C77.6092 67.5379 96.7039 81.0769 101.528 84.4821C101.908 84.7501 102.112 85.1767 102.112 85.6108V85.6112Z"
            fill="#F4F7EF" id="blade" />
        <path
            d="M59.2292 68.5824C58.1486 69.8883 56.4131 71.8827 55.434 72.4791C53.9464 73.3826 33.1462 84.1179 27.9041 86.8374C27.2596 87.172 26.4667 86.9492 26.0881 86.3289C25.9521 86.1049 25.8867 85.8566 25.8867 85.6116C25.8867 85.1772 26.091 84.7505 26.4708 84.4829C31.2953 81.0778 50.39 67.5387 51.8776 66.6336C52.9324 65.9903 55.8393 65.3154 57.4555 64.9734C57.6598 66.364 58.2986 67.614 59.2292 68.5828V68.5824Z"
            fill="#F4F7EF" id="blade" />
        <path
            d="M67.6323 51.8561C67.6323 53.141 66.6819 56.0525 66.0949 57.7246C65.4369 57.5051 64.7331 57.3855 64.0007 57.3855C63.2682 57.3855 62.5632 57.5051 61.9047 57.7246C61.3178 56.0525 60.3687 53.141 60.3687 51.8561C60.3687 50.0097 62.1103 25.219 62.5373 18.9662C62.5887 18.1959 63.2287 17.5999 64.0007 17.5999C64.3866 17.5999 64.7377 17.7482 65.0011 17.9949C65.2646 18.2399 65.4369 18.5806 65.4644 18.9666C65.8894 25.2194 67.6331 50.0101 67.6331 51.8565L67.6323 51.8561Z"
            fill="#F4F7EF" id="blade" />
        <path
            d="M70.615 64C70.615 64.3301 70.5908 64.6552 70.5439 64.973C70.3396 66.3635 69.7009 67.6135 68.7703 68.5824C68.074 69.307 67.2145 69.8731 66.2506 70.2229C65.5485 70.4769 64.7901 70.615 64.0005 70.615C63.2109 70.615 62.4508 70.4757 61.7488 70.2216C60.7849 69.8735 59.9254 69.3075 59.2291 68.5828C58.2984 67.6144 57.6597 66.3644 57.4554 64.9734C57.4085 64.6556 57.3843 64.3301 57.3843 64.0004C57.3843 61.0799 59.2776 58.6009 61.9046 57.725C62.5626 57.5055 63.268 57.3859 64.0005 57.3859C64.733 57.3859 65.4367 57.5055 66.0948 57.725C68.7218 58.6013 70.615 61.0799 70.615 64.0004V64Z"
            fill="#EFF4EB" />
    </g>
    <defs>
        <linearGradient id="paint0_linear_211_4" x1="8.2508" y1="11.9492" x2="119.75" y2="116.05"
            gradientUnits="userSpaceOnUse">
            <stop stop-color="#D1F3E3" />
            <stop offset="0.19" stop-color="#B6E3D0" />
            <stop offset="0.69" stop-color="#72BD9F" />
            <stop offset="0.93" stop-color="#58AE8D" />
        </linearGradient>
        <linearGradient id="paint1_linear_211_4" x1="72.0882" y1="4.47587" x2="2.36645" y2="72.3553"
            gradientUnits="userSpaceOnUse">
            <stop stop-color="#9CE38A" />
            <stop offset="0.06" stop-color="#A1E58F" />
            <stop offset="0.37" stop-color="#BCF2A9" />
            <stop offset="0.56" stop-color="#ACEA9F" />
            <stop offset="0.94" stop-color="#83D887" />
            <stop offset="0.98" stop-color="#7FD685" />
        </linearGradient>
        <linearGradient id="paint2_linear_211_4" x1="23.6102" y1="21.8718" x2="50.1478" y2="53.1175"
            gradientUnits="userSpaceOnUse">
            <stop offset="0.27" stop-color="#E5FBE1" />
            <stop offset="0.32" stop-color="#D0F4C8" />
            <stop offset="0.41" stop-color="#B3EAA6" />
            <stop offset="0.48" stop-color="#A2E591" />
            <stop offset="0.53" stop-color="#9CE38A" />
            <stop offset="0.98" stop-color="#7FD486" />
        </linearGradient>
        <linearGradient id="paint3_linear_211_4" x1="44.5593" y1="47.7242" x2="105.091" y2="98.4017"
            gradientUnits="userSpaceOnUse">
            <stop stop-color="#77CF7F" />
            <stop offset="1" stop-color="#1B986C" />
        </linearGradient>
        <linearGradient id="paint4_linear_211_4" x1="45.4182" y1="48.444" x2="92.9661" y2="88.2514"
            gradientUnits="userSpaceOnUse">
            <stop stop-color="#5EC373" />
            <stop offset="1" stop-color="#147A56" />
        </linearGradient>
        <linearGradient id="paint5_linear_211_4" x1="35.341" y1="38.2184" x2="48.3551" y2="49.1136"
            gradientUnits="userSpaceOnUse">
            <stop stop-color="#8EDF94" />
            <stop offset="1" stop-color="#6CC97F" />
        </linearGradient>
        <linearGradient id="paint6_linear_211_4" x1="47.0236" y1="48.1497" x2="121.922" y2="118.078"
            gradientUnits="userSpaceOnUse">
            <stop stop-color="#A1E2B5" />
            <stop offset="0.55" stop-color="#73CAA2" />
            <stop offset="0.93" stop-color="#59BD98" />
        </linearGradient>
        <linearGradient id="paint7_linear_211_4" x1="10.2845" y1="6.63725" x2="47.1878" y2="49.4375"
            gradientUnits="userSpaceOnUse">
            <stop offset="0.06" stop-color="#F7FCF8" />
            <stop offset="0.19" stop-color="#E1F5E6" />
            <stop offset="0.28" stop-color="#D8F3DF" />
            <stop offset="0.54" stop-color="#C0EBCD" />
            <stop offset="0.81" stop-color="#AFE5C0" />
            <stop offset="1" stop-color="#A9E3BC" />
        </linearGradient>
        <linearGradient id="paint8_linear_211_4" x1="63.9995" y1="126.838" x2="63.9995" y2="65.2492"
            gradientUnits="userSpaceOnUse">
            <stop offset="0.77" stop-color="#E1E3DC" />
            <stop offset="0.82" stop-color="#DEE0D9" />
            <stop offset="0.86" stop-color="#D6D8D1" />
            <stop offset="0.88" stop-color="#C7C9C3" />
            <stop offset="0.91" stop-color="#B3B5AF" />
            <stop offset="0.93" stop-color="#999A96" />
            <stop offset="0.95" stop-color="#797A76" />
            <stop offset="0.97" stop-color="#525351" />
            <stop offset="0.99" stop-color="#272826" />
            <stop offset="1" />
        </linearGradient>
        <clipPath id="clip0_211_4">
            <rect width="128" height="128" fill="white" />
        </clipPath>
    </defs>
</svg>